<svg id="cart" xmlns="http://www.w3.org/2000/svg" xmlns:xlink="http://www.w3.org/1999/xlink" width="24" height="24" viewBox="0 0 24 24">
  <defs>
    <clipPath id="clip-path">
      <rect id="長方形_29952" data-name="長方形 29952" width="24" height="24" fill="#00754a"/>
    </clipPath>
  </defs>
  <g id="cart_1">
    <g id="グループ_46704" data-name="グループ 46704" clip-path="url(#clip-path)">
      <path id="パス_43373" data-name="パス 43373" d="M23.255,4.676a1.057,1.057,0,0,0-1.328.708l-3.436,11.2H7.212L5.426.953A1.066,1.066,0,0,0,4.373,0H1.06A1.069,1.069,0,0,0,0,1.077,1.069,1.069,0,0,0,1.06,2.154H3.429L5.214,17.788a1.066,1.066,0,0,0,1.053.953h13a1.062,1.062,0,0,0,1.012-.757L23.952,6.025a1.08,1.08,0,0,0-.7-1.349" fill="#00754a"/>
      <path id="パス_43374" data-name="パス 43374" d="M54.6,184.357a2.072,2.072,0,1,0,2.04,2.072,2.056,2.056,0,0,0-2.04-2.072" transform="translate(-46.986 -164.501)" fill="#00754a"/>
      <path id="パス_43375" data-name="パス 43375" d="M143.88,184.357a2.072,2.072,0,1,0,2.04,2.072,2.056,2.056,0,0,0-2.04-2.072" transform="translate(-126.802 -164.501)" fill="#00754a"/>
    </g>
  </g>
</svg>